<svg xmlns="http://www.w3.org/2000/svg" width="14.725" height="21.082" viewBox="0 0 14.725 21.082">
  <g id="lightbulb-line" transform="translate(-6.999 -2.25)">
    <path id="Pfad_15" data-name="Pfad 15" d="M14.362,2.25A7.362,7.362,0,0,0,7,9.612a7.148,7.148,0,0,0,.669,3.1,10.95,10.95,0,0,0,.75,1.191,11.378,11.378,0,0,1,1.339,2.322,10.836,10.836,0,0,1,.395,2.677h1.339a12.161,12.161,0,0,0-.475-3.139A12.355,12.355,0,0,0,9.53,13.139a10.568,10.568,0,0,1-.669-1.031A5.783,5.783,0,0,1,8.338,9.6a6.047,6.047,0,1,1,12.094,0,5.783,5.783,0,0,1-.576,2.523,10.568,10.568,0,0,1-.669,1.031,12.355,12.355,0,0,0-1.479,2.61,12.161,12.161,0,0,0-.475,3.152h1.339a10.836,10.836,0,0,1,.395-2.677,11.378,11.378,0,0,1,1.339-2.322,10.916,10.916,0,0,0,.75-1.218,7.148,7.148,0,0,0,.669-3.1A7.362,7.362,0,0,0,14.362,2.25Z" transform="translate(0 0)" fill="#fff"/>
    <path id="Pfad_16" data-name="Pfad 16" d="M17.264,15.433a.535.535,0,0,0-.756,0L14.5,17.441l1.914,2.095v3.708h1.1V19.107l-1.5-1.64L17.278,16.2a.535.535,0,0,0-.013-.77Z" transform="translate(-2.481 -4.308)" fill="#fff"/>
    <path id="Pfad_17" data-name="Pfad 17" d="M19.709,29.15H11.845a.535.535,0,1,0,0,1.071h7.864a.535.535,0,0,0,0-1.071Z" transform="translate(-1.426 -8.896)" fill="#fff"/>
    <path id="Pfad_18" data-name="Pfad 18" d="M19.09,32.15H13.735a.535.535,0,1,0,0,1.071H19.09a.535.535,0,0,0,0-1.071Z" transform="translate(-2.051 -9.889)" fill="#fff"/>
    <path id="Pfad_19" data-name="Pfad 19" d="M16.349,10.8l-1.827,1.827a.535.535,0,0,0,.756.756L17.1,11.539a.535.535,0,1,0-.756-.756Z" transform="translate(-2.442 -2.764)" fill="#fff"/>
  </g>
</svg>
