<svg xmlns="http://www.w3.org/2000/svg" width="22" height="21.999" viewBox="0 0 22 21.999">
  <path id="instagram" d="M14,3c-2.987,0-3.361.013-4.535.066a8.1,8.1,0,0,0-2.67.512A5.621,5.621,0,0,0,3.577,6.795a8.11,8.11,0,0,0-.512,2.67C3.012,10.638,3,11.012,3,14s.012,3.361.066,4.535a8.1,8.1,0,0,0,.512,2.67A5.62,5.62,0,0,0,6.8,24.421a8.11,8.11,0,0,0,2.67.512C10.639,24.986,11.013,25,14,25s3.361-.013,4.535-.066a8.1,8.1,0,0,0,2.67-.512A5.62,5.62,0,0,0,24.422,21.2a8.11,8.11,0,0,0,.512-2.67C24.987,17.361,25,16.986,25,14s-.013-3.361-.066-4.535a8.1,8.1,0,0,0-.512-2.67A5.62,5.62,0,0,0,21.2,3.577a8.11,8.11,0,0,0-2.67-.512C17.361,3.013,16.987,3,14,3m0,1.982c2.937,0,3.284.011,4.444.064a6.111,6.111,0,0,1,2.044.378,3.641,3.641,0,0,1,2.088,2.088,6.1,6.1,0,0,1,.378,2.042c.053,1.161.064,1.507.064,4.445s-.011,3.284-.064,4.444a6.15,6.15,0,0,1-.378,2.044,3.641,3.641,0,0,1-2.088,2.088,6.1,6.1,0,0,1-2.042.378c-1.159.053-1.507.064-4.445.064s-3.286-.011-4.444-.064a6.15,6.15,0,0,1-2.044-.378,3.641,3.641,0,0,1-2.088-2.088,6.066,6.066,0,0,1-.378-2.042c-.053-1.161-.064-1.507-.064-4.445s.011-3.284.064-4.444a6.111,6.111,0,0,1,.378-2.044A3.641,3.641,0,0,1,7.512,5.424a6.066,6.066,0,0,1,2.042-.378c1.161-.053,1.507-.064,4.445-.064m0,12.684A3.666,3.666,0,1,1,17.666,14,3.666,3.666,0,0,1,14,17.666m0-9.314A5.648,5.648,0,1,0,19.647,14,5.648,5.648,0,0,0,14,8.352m7.191-.223a1.32,1.32,0,1,1-1.32-1.32,1.32,1.32,0,0,1,1.32,1.32" transform="translate(-3 -3)" fill="#fff" fill-rule="evenodd"/>
</svg>
