<svg xmlns="http://www.w3.org/2000/svg" width="38.426" height="30.295" viewBox="0 0 38.426 30.295">
  <g id="plane-solid" transform="translate(3.532 -4.909) rotate(7)">
    <path id="Pfad_13" data-name="Pfad 13" d="M6.25,11.5,12,13.16l6.32-4.59-9.07.26A.52.52,0,0,0,9,8.91L6.13,10.56a.51.51,0,0,0,.12.94Z" fill="#fff"/>
    <path id="Pfad_14" data-name="Pfad 14" d="M34.52,6.36,28.22,5a3.78,3.78,0,0,0-3.07.67L6.12,19.5l-4.57-.2a1.25,1.25,0,0,0-.83,2.22l4.45,3.53a.55.55,0,0,0,.53.09c1.27-.49,6-3,11.59-6.07l1.12,11.51a.55.55,0,0,0,.9.37l2.5-2.08a.76.76,0,0,0,.26-.45l2.37-13.29c4-2.22,7.82-4.37,10.51-5.89a1.55,1.55,0,0,0-.43-2.88Z" fill="#fff"/>
  </g>
</svg>
