<svg xmlns="http://www.w3.org/2000/svg" width="22" height="18.334" viewBox="0 0 22 18.334">
  <path id="twitter" d="M22,3.978a5.874,5.874,0,0,1-.822,1.177,6.062,6.062,0,0,1-1.484,1.251c.016.131.029.253.037.368a13.369,13.369,0,0,1-.944,5.114,13.468,13.468,0,0,1-5.359,6.659A14.1,14.1,0,0,1,5.04,20.08,9.642,9.642,0,0,1,0,18.13a9.388,9.388,0,0,0,6.72-1.938,4.631,4.631,0,0,1-4.268-3.164,2.876,2.876,0,0,0,.957.049,8.793,8.793,0,0,0,1.079-.147,5.06,5.06,0,0,1-3.066-2.379A5.137,5.137,0,0,1,.907,8.3a4.308,4.308,0,0,0,2.036.613,5.259,5.259,0,0,1-2-3.25A6.021,6.021,0,0,1,1.5,2.727,15.424,15.424,0,0,0,6.732,6.651a10.815,10.815,0,0,0,4.108.858,5.493,5.493,0,0,1,.552-3.483,4.746,4.746,0,0,1,2.833-2.06,4.181,4.181,0,0,1,4.194,1.3,7.474,7.474,0,0,0,2.919-1.079,4.429,4.429,0,0,1-2.011,2.6A12.719,12.719,0,0,0,22,3.978Z" transform="translate(0 -1.833)" fill="#fff"/>
</svg>
